<svg width="180" height="227" viewBox="0 0 180 227" fill="none" xmlns="http://www.w3.org/2000/svg">
<g filter="url(#filter0_b_8_132)">
<rect x="0.995819" width="179.002" height="226.575" rx="3" fill="white" fill-opacity="0.05"/>
</g>
<rect x="21.96" y="21.7706" width="45.1537" height="12.0947" rx="3" fill="white" fill-opacity="0.05"/>
<rect x="21.96" y="97.5642" width="21.5622" height="12.0947" rx="3" fill="white" fill-opacity="0.05"/>
<rect x="58.9237" y="97.5642" width="48.5149" height="12.0947" rx="3" fill="white" fill-opacity="0.05"/>
<rect x="122.84" y="97.5642" width="36.1936" height="12.0947" rx="3" fill="white" fill-opacity="0.05"/>
<rect x="21.96" y="121.754" width="21.5622" height="12.0947" rx="3" fill="white" fill-opacity="0.05"/>
<rect x="59.0506" y="121.754" width="54.8295" height="12.0947" rx="3" fill="white" fill-opacity="0.05"/>
<rect x="129.2" y="121.754" width="29.8337" height="12.0947" rx="3" fill="white" fill-opacity="0.05"/>
<rect x="21.96" y="170.133" width="21.5622" height="12.0947" rx="3" fill="white" fill-opacity="0.05"/>
<rect x="59.0506" y="170.133" width="54.8295" height="12.0947" rx="3" fill="white" fill-opacity="0.05"/>
<rect x="129.2" y="170.133" width="29.8337" height="12.0947" rx="3" fill="white" fill-opacity="0.05"/>
<rect x="21.96" y="145.943" width="21.5622" height="12.0947" rx="3" fill="white" fill-opacity="0.05"/>
<rect x="59.0506" y="145.943" width="35.4779" height="12.0947" rx="3" fill="white" fill-opacity="0.05"/>
<rect x="109.848" y="145.943" width="49.1853" height="12.0947" rx="3" fill="white" fill-opacity="0.05"/>
<rect x="21.96" y="73.3748" width="21.5622" height="12.0947" rx="3" fill="white" fill-opacity="0.05"/>
<rect x="59.0506" y="73.3748" width="54.8295" height="12.0947" rx="3" fill="white" fill-opacity="0.05"/>
<rect x="129.2" y="73.3748" width="29.8337" height="12.0947" rx="3" fill="white" fill-opacity="0.05"/>
<rect x="21.96" y="49.1853" width="21.5622" height="12.0947" rx="3" fill="white" fill-opacity="0.05"/>
<rect x="58.9237" y="49.1853" width="48.5149" height="12.0947" rx="3" fill="white" fill-opacity="0.05"/>
<rect x="122.84" y="49.1853" width="36.1936" height="12.0947" rx="3" fill="white" fill-opacity="0.05"/>
<rect x="21.96" y="194.322" width="21.5622" height="12.0947" rx="3" fill="white" fill-opacity="0.05"/>
<rect x="58.9237" y="194.322" width="48.5149" height="12.0947" rx="3" fill="white" fill-opacity="0.05"/>
<rect x="122.84" y="194.322" width="36.1936" height="12.0947" rx="3" fill="white" fill-opacity="0.05"/>
<defs>
<filter id="filter0_b_8_132" x="-73.0042" y="-74" width="327.002" height="374.575" filterUnits="userSpaceOnUse" color-interpolation-filters="sRGB">
<feFlood flood-opacity="0" result="BackgroundImageFix"/>
<feGaussianBlur in="BackgroundImageFix" stdDeviation="37"/>
<feComposite in2="SourceAlpha" operator="in" result="effect1_backgroundBlur_8_132"/>
<feBlend mode="normal" in="SourceGraphic" in2="effect1_backgroundBlur_8_132" result="shape"/>
</filter>
</defs>
</svg>
